<!--?xml version="1.0" encoding="utf-8"?-->
<!-- Generator: Adobe Illustrator 18.1.1, SVG Export Plug-In . SVG Version: 6.00 Build 0)  -->

<svg version="1.1" id="_x32_" xmlns="http://www.w3.org/2000/svg" xmlns:xlink="http://www.w3.org/1999/xlink" x="0px" y="0px" viewBox="0 0 512 512" style="width: 256px; height: 256px; opacity: 1;" xml:space="preserve">
<style type="text/css">
	.st0{fill:#4B4B4B;}
</style>
<g>
	<path class="st0" d="M466.674,0.806c-0.795-0.524-1.716-0.796-2.664-0.796c-0.696,0-1.376,0.147-2.015,0.43l-76.823,34.554
		L320.534,5.924l-64.577,29.069L191.362,5.924l-64.576,29.069L49.999,0.418C49.366,0.146,48.69,0,48.006,0
		c-0.942,0-1.859,0.272-2.68,0.795c-1.387,0.921-2.22,2.45-2.22,4.093v502.214c0,1.664,0.837,3.192,2.229,4.092
		c0.796,0.523,1.723,0.795,2.674,0.795c0.686,0,1.356-0.136,2.006-0.419l76.822-34.564l64.628,29.07l64.577-29.07l64.606,29.07
		l64.576-29.07l76.787,34.575c0.634,0.272,1.304,0.419,1.994,0.419c0.942,0,1.859-0.272,2.68-0.795
		c1.382-0.922,2.209-2.45,2.209-4.094V4.898C468.894,3.234,468.061,1.696,466.674,0.806z M430.697,455.578l-45.472-20.474
		l-64.576,29.069l-64.606-29.059l-64.577,29.059l-64.628-29.059l-45.524,20.476V56.42l45.472,20.465l64.576-29.058l64.596,29.058
		l64.586-29.058l64.628,29.058l45.525-20.474V455.578z" style="fill: rgb(75, 75, 75);"></path>
	<rect x="137.306" y="167.369" class="st0" width="237.399" height="25.49" style="fill: rgb(75, 75, 75);"></rect>
	<rect x="137.306" y="253.676" class="st0" width="237.399" height="25.5" style="fill: rgb(75, 75, 75);"></rect>
	<rect x="137.306" y="339.993" class="st0" width="123.269" height="25.489" style="fill: rgb(75, 75, 75);"></rect>
</g>
</svg>
